<svg xmlns="http://www.w3.org/2000/svg" width="700" height="700" viewBox="0 0 700 700">
<!-- Papel de parede do chat, gerado por scripts/generate-chat-doodle.mjs. Usado como máscara: a cor vem do token wa-doodle. Ícones: lucide (ISC). -->
<defs><g id="gamepad-2"><line x1="6" x2="10" y1="11" y2="11"/><line x1="8" x2="8" y1="9" y2="13"/><line x1="15" x2="15.01" y1="12" y2="12"/><line x1="18" x2="18.01" y1="10" y2="10"/><path d="M17.32 5H6.68a4 4 0 0 0-3.978 3.59c-.006.052-.01.101-.017.152C2.604 9.416 2 14.456 2 16a3 3 0 0 0 3 3c1 0 1.5-.5 2-1l1.414-1.414A2 2 0 0 1 9.828 16h4.344a2 2 0 0 1 1.414.586L17 18c.5.5 1 1 2 1a3 3 0 0 0 3-3c0-1.545-.604-6.584-.685-7.258-.007-.05-.011-.1-.017-.151A4 4 0 0 0 17.32 5z"/></g><g id="rocket"><path d="M12 15v5s3.03-.55 4-2c1.08-1.62 0-5 0-5"/><path d="M4.5 16.5c-1.5 1.26-2 5-2 5s3.74-.5 5-2c.71-.84.7-2.13-.09-2.91a2.18 2.18 0 0 0-2.91-.09"/><path d="M9 12a22 22 0 0 1 2-3.95A12.88 12.88 0 0 1 22 2c0 2.72-.78 7.5-6 11a22.4 22.4 0 0 1-4 2z"/><path d="M9 12H4s.55-3.03 2-4c1.62-1.08 5 .05 5 .05"/></g><g id="drum"><path d="m2 2 8 8"/><path d="m22 2-8 8"/><ellipse cx="12" cy="9" rx="10" ry="5"/><path d="M7 13.4v7.9"/><path d="M12 14v8"/><path d="M17 13.4v7.9"/><path d="M2 9v8a10 5 0 0 0 20 0V9"/></g><g id="ship"><path d="M12 2v2"/><path d="M12 9.189V13"/><path d="M19 12V6a2 2 0 00-2-2H7a2 2 0 00-2 2v6"/><path d="M19.38 19A11.6 11.6 0 0021 13l-8.188-3.639a2 2 0 00-1.624 0L3 13.001a11.6 11.6 0 002.81 7.76"/><path d="M2 20c.6.5 1.2 1 2.5 1 2.5 0 2.5-2 5-2 1.3 0 1.9.5 2.5 1s1.2 1 2.5 1c2.5 0 2.5-2 5-2 1.3 0 1.9.5 2.5 1"/></g><g id="tree-palm"><path d="M13 8c0-2.76-2.46-5-5.5-5S2 5.24 2 8h2l1-1 1 1h4"/><path d="M13 7.14A5.82 5.82 0 0 1 16.5 6c3.04 0 5.5 2.24 5.5 5h-3l-1-1-1 1h-3"/><path d="M5.89 9.71c-2.15 2.15-2.3 5.47-.35 7.43l4.24-4.25.7-.7.71-.71 2.12-2.12c-1.95-1.96-5.27-1.8-7.42.35"/><path d="M11 15.5c.5 2.5-.17 4.5-1 6.5h4c2-5.5-.5-12-1-14"/></g><g id="globe"><circle cx="12" cy="12" r="10"/><path d="M12 2a14.5 14.5 0 0 0 0 20 14.5 14.5 0 0 0 0-20"/><path d="M2 12h20"/></g><g id="solar-panel"><path d="M11 2h2"/><path d="m14.28 14-4.56 8"/><path d="m21 22-1.558-4H4.558"/><path d="M3 10v2"/><path d="M6.245 15.04A2 2 0 0 1 8 14h12a1 1 0 0 1 .864 1.505l-3.11 5.457A2 2 0 0 1 16 22H4a1 1 0 0 1-.863-1.506z"/><path d="M7 2a4 4 0 0 1-4 4"/><path d="m8.66 7.66 1.41 1.41"/></g><g id="camera"><path d="M13.997 4a2 2 0 0 1 1.76 1.05l.486.9A2 2 0 0 0 18.003 7H20a2 2 0 0 1 2 2v9a2 2 0 0 1-2 2H4a2 2 0 0 1-2-2V9a2 2 0 0 1 2-2h1.997a2 2 0 0 0 1.759-1.048l.489-.904A2 2 0 0 1 10.004 4z"/><circle cx="12" cy="13" r="3"/></g><g id="car"><path d="M19 17h2c.6 0 1-.4 1-1v-3c0-.9-.7-1.7-1.5-1.9C18.7 10.6 16 10 16 10s-1.3-1.4-2.2-2.3c-.5-.4-1.1-.7-1.8-.7H5c-.6 0-1.1.4-1.4.9l-1.4 2.9A3.7 3.7 0 0 0 2 12v4c0 .6.4 1 1 1h2"/><circle cx="7" cy="17" r="2"/><path d="M9 17h6"/><circle cx="17" cy="17" r="2"/></g><g id="headphones"><path d="M3 14h3a2 2 0 0 1 2 2v3a2 2 0 0 1-2 2H5a2 2 0 0 1-2-2v-7a9 9 0 0 1 18 0v7a2 2 0 0 1-2 2h-1a2 2 0 0 1-2-2v-3a2 2 0 0 1 2-2h3"/></g><g id="bike"><circle cx="18.5" cy="17.5" r="3.5"/><circle cx="5.5" cy="17.5" r="3.5"/><circle cx="15" cy="5" r="1"/><path d="M12 17.5V14l-3-3 4-3 2 3h2"/></g><g id="shell"><path d="M14 11a2 2 0 1 1-4 0 4 4 0 0 1 8 0 6 6 0 0 1-12 0 8 8 0 0 1 16 0 10 10 0 1 1-20 0 11.93 11.93 0 0 1 2.42-7.22 2 2 0 1 1 3.16 2.44"/></g><g id="hand-metal"><path d="M18 12.5V10a2 2 0 0 0-2-2a2 2 0 0 0-2 2v1.4"/><path d="M14 11V9a2 2 0 1 0-4 0v2"/><path d="M10 10.5V5a2 2 0 1 0-4 0v9"/><path d="m7 15-1.76-1.76a2 2 0 0 0-2.83 2.82l3.6 3.6C7.5 21.14 9.2 22 12 22h2a8 8 0 0 0 8-8V7a2 2 0 1 0-4 0v5"/></g><g id="sprout"><path d="M14 9.536V7a4 4 0 0 1 4-4h1.5a.5.5 0 0 1 .5.5V5a4 4 0 0 1-4 4 4 4 0 0 0-4 4c0 2 1 3 1 5a5 5 0 0 1-1 3"/><path d="M4 9a5 5 0 0 1 8 4 5 5 0 0 1-8-4"/><path d="M5 21h14"/></g><g id="ice-cream-cone"><path d="m7 11 4.08 10.35a1 1 0 0 0 1.84 0L17 11"/><path d="M17 7A5 5 0 0 0 7 7"/><path d="M17 7a2 2 0 0 1 0 4H7a2 2 0 0 1 0-4"/></g><g id="flower"><circle cx="12" cy="12" r="3"/><path d="M12 16.5A4.5 4.5 0 1 1 7.5 12 4.5 4.5 0 1 1 12 7.5a4.5 4.5 0 1 1 4.5 4.5 4.5 4.5 0 1 1-4.5 4.5"/><path d="M12 7.5V9"/><path d="M7.5 12H9"/><path d="M16.5 12H15"/><path d="M12 16.5V15"/><path d="m8 8 1.88 1.88"/><path d="M14.12 9.88 16 8"/><path d="m8 16 1.88-1.88"/><path d="M14.12 14.12 16 16"/></g><g id="wind"><path d="M12.8 19.6A2 2 0 1 0 14 16H2"/><path d="M17.5 8a2.5 2.5 0 1 1 2 4H2"/><path d="M9.8 4.4A2 2 0 1 1 11 8H2"/></g><g id="leaf"><path d="M11 20a10 10 0 0010-10 25.9 25.9 0 00-1.04-7.281 1 1 0 00-1.755-.325C15.833 5.5 13 5.5 9.8 6.1A7 7 0 0011 20"/><path d="M2 21a5 5 0 012.911-4.544C7.613 15.212 8.351 15.24 11 13"/></g><g id="cloud-sun"><path d="M12 2v2"/><path d="m4.93 4.93 1.41 1.41"/><path d="M20 12h2"/><path d="m19.07 4.93-1.41 1.41"/><path d="M15.947 12.65a4 4 0 0 0-5.925-4.128"/><path d="M13 22H7a5 5 0 1 1 4.9-6H13a3 3 0 0 1 0 6Z"/></g><g id="feather"><path d="M14.086 18.412A2 2 0 0112.67 19H5v-7.672a2 2 0 01.586-1.414L11.75 3.75a6 6 0 118.49 8.49z"/><path d="M16 8 2 22"/><path d="M17.488 15H9"/></g><g id="book"><path d="M4 19.5v-15A2.5 2.5 0 0 1 6.5 2H19a1 1 0 0 1 1 1v18a1 1 0 0 1-1 1H6.5a1 1 0 0 1 0-5H20"/></g><g id="timer"><line x1="10" x2="14" y1="2" y2="2"/><line x1="12" x2="15" y1="14" y2="11"/><circle cx="12" cy="14" r="8"/></g><g id="mountain"><path d="m8 3 4 8 5-5 5 15H2L8 3z"/></g><g id="trophy"><path d="M10 14.66V17a1 1 0 0 1-1 1 2 2 0 0 0-2 2v2"/><path d="M14 14.66V17a1 1 0 0 0 1 1 2 2 0 0 1 2 2v2"/><path d="M17.916 10H19.5A2.5 2.5 0 0 0 22 7.5V5a1 1 0 0 0-1-1h-3"/><path d="M4 22h16"/><path d="M6 9a6 6 0 0 0 12 0V3a1 1 0 0 0-1-1H7a1 1 0 0 0-1 1z"/><path d="M6.084 10H4.5A2.5 2.5 0 0 1 2 7.5V5a1 1 0 0 1 1-1h3"/></g><g id="sandwich"><path d="m2.37 11.223 8.372-6.777a2 2 0 0 1 2.516 0l8.371 6.777"/><path d="M21 15a1 1 0 0 1 1 1v2a1 1 0 0 1-1 1h-5.25"/><path d="M3 15a1 1 0 0 0-1 1v2a1 1 0 0 0 1 1h9"/><path d="m6.67 15 6.13 4.6a2 2 0 0 0 2.8-.4l3.15-4.2"/><rect width="20" height="4" x="2" y="11" rx="1"/></g><g id="gift"><path d="M12 7v14"/><path d="M20 11v8a2 2 0 0 1-2 2H6a2 2 0 0 1-2-2v-8"/><path d="M7.5 7a1 1 0 0 1 0-5A4.8 8 0 0 1 12 7a4.8 8 0 0 1 4.5-5 1 1 0 0 1 0 5"/><rect x="3" y="7" width="18" height="4" rx="1"/></g><g id="anchor"><path d="M12 6v16"/><path d="m19 13 2-1a9 9 0 0 1-18 0l2 1"/><path d="M9 11h6"/><circle cx="12" cy="4" r="2"/></g><g id="lollipop"><circle cx="11" cy="11" r="8"/><path d="m21 21-4.3-4.3"/><path d="M11 11a2 2 0 0 0 4 0 4 4 0 0 0-8 0 6 6 0 0 0 12 0"/></g><g id="waves-horizontal"><path d="M2 12q2.5 2 5 0t5 0 5 0 5 0"/><path d="M2 19q2.5 2 5 0t5 0 5 0 5 0"/><path d="M2 5q2.5 2 5 0t5 0 5 0 5 0"/></g><g id="face-slightly-smiling"><path d="M15 10V9"/><path d="M16.472 15a6 6 0 01-8.943 0"/><path d="M9 10V9"/><circle cx="12" cy="12" r="10"/></g><g id="battery-charging"><path d="m11 7-3 5h4l-3 5"/><path d="M14.856 6H16a2 2 0 0 1 2 2v8a2 2 0 0 1-2 2h-2.935"/><path d="M22 14v-4"/><path d="M5.14 18H4a2 2 0 0 1-2-2V8a2 2 0 0 1 2-2h2.936"/></g><g id="sailboat"><path d="M10 2v15"/><path d="M7 22a4 4 0 0 1-4-4 1 1 0 0 1 1-1h16a1 1 0 0 1 1 1 4 4 0 0 1-4 4z"/><path d="M9.159 2.46a1 1 0 0 1 1.521-.193l9.977 8.98A1 1 0 0 1 20 13H4a1 1 0 0 1-.824-1.567z"/></g><g id="music"><path d="M9 18V5l12-2v13"/><circle cx="6" cy="18" r="3"/><circle cx="18" cy="16" r="3"/></g><g id="thumbs-up"><path d="M15 5.88 14 10h5.83a2 2 0 0 1 1.92 2.56l-2.33 8A2 2 0 0 1 17.5 22H4a2 2 0 0 1-2-2v-8a2 2 0 0 1 2-2h2.76a2 2 0 0 0 1.79-1.11L12 2a3.13 3.13 0 0 1 3 3.88Z"/><path d="M7 10v12"/></g><g id="flag"><path d="M4 22V4a1 1 0 0 1 .4-.8A6 6 0 0 1 8 2c3 0 5 2 7.333 2q2 0 3.067-.8A1 1 0 0 1 20 4v10a1 1 0 0 1-.4.8A6 6 0 0 1 16 16c-3 0-5-2-8-2a6 6 0 0 0-4 1.528"/></g><g id="umbrella"><path d="M12 13v7a2 2 0 0 0 4 0"/><path d="M12 2v2"/><path d="M20.992 13a1 1 0 0 0 .97-1.274 10.284 10.284 0 0 0-19.923 0A1 1 0 0 0 3 13z"/></g><g id="glasses"><circle cx="6" cy="15" r="4"/><circle cx="18" cy="15" r="4"/><path d="M14 15a2 2 0 0 0-2-2 2 2 0 0 0-2 2"/><path d="M2.5 13 5 7c.7-1.3 1.4-2 3-2"/><path d="M21.5 13 19 7c-.7-1.3-1.5-2-3-2"/></g><g id="coffee"><path d="M10 2v2"/><path d="M14 2v2"/><path d="M16 8a1 1 0 0 1 1 1v8a4 4 0 0 1-4 4H7a4 4 0 0 1-4-4V9a1 1 0 0 1 1-1h14a4 4 0 1 1 0 8h-1"/><path d="M6 2v2"/></g><g id="sun"><circle cx="12" cy="12" r="4"/><path d="M12 2v2"/><path d="M12 20v2"/><path d="m4.93 4.93 1.41 1.41"/><path d="m17.66 17.66 1.41 1.41"/><path d="M2 12h2"/><path d="M20 12h2"/><path d="m6.34 17.66-1.41 1.41"/><path d="m19.07 4.93-1.41 1.41"/></g><g id="map-pin"><path d="M20 10c0 4.993-5.539 10.193-7.399 11.799a1 1 0 0 1-1.202 0C9.539 20.193 4 14.993 4 10a8 8 0 0 1 16 0"/><circle cx="12" cy="10" r="3"/></g><g id="bell"><path d="M10.268 21a2 2 0 0 0 3.464 0"/><path d="M3.262 15.326A1 1 0 0 0 4 17h16a1 1 0 0 0 .74-1.673C19.41 13.956 18 12.499 18 8A6 6 0 0 0 6 8c0 4.499-1.411 5.956-2.738 7.326"/></g><g id="key"><path d="m2 21 9.6-9.6"/><path d="m7.5 15.5 2.3 2.3a1 1 0 0 1 0 1.4l-2.1 2.1a1 1 0 0 1-1.4 0L4 19"/><circle cx="15.5" cy="7.5" r="5.5"/></g><g id="fish"><path d="M6.5 12c.94-3.46 4.94-6 8.5-6 3.56 0 6.06 2.54 7 6-.94 3.47-3.44 6-7 6s-7.56-2.53-8.5-6Z"/><path d="M18 12v.5"/><path d="M16 17.93a9.77 9.77 0 0 1 0-11.86"/><path d="M7 10.67C7 8 5.58 5.97 2.73 5.5c-1 1.5-1 5 .23 6.5-1.24 1.5-1.24 5-.23 6.5C5.58 18.03 7 16 7 13.33"/><path d="M10.46 7.26C10.2 5.88 9.17 4.24 8 3h5.8a2 2 0 0 1 1.98 1.67l.23 1.4"/><path d="m16.01 17.93-.23 1.4A2 2 0 0 1 13.8 21H9.5a5.96 5.96 0 0 0 1.49-3.98"/></g><g id="plug-zap"><path d="M6.3 20.3a2.4 2.4 0 0 0 3.4 0L12 18l-6-6-2.3 2.3a2.4 2.4 0 0 0 0 3.4Z"/><path d="m2 22 3-3"/><path d="M7.5 13.5 10 11"/><path d="M10.5 16.5 13 14"/><path d="m18 3-4 4h6l-4 4"/></g><g id="volleyball"><path d="M11 7a16 16 20 0 1 10.98 4.362"/><path d="M12 12a13 13 0 0 1-8.66 5"/><path d="M16.83 13.634a16 16 0 0 1-9.267 7.328"/><path d="M20.66 17A13 13 0 0 0 12 12a13 13 0 0 1 0-10"/><path d="M8.17 15.366a16 16 0 0 1-1.713-11.69"/><circle cx="12" cy="12" r="10"/></g><g id="cherry"><path d="M2 17a5 5 0 0 0 10 0c0-2.76-2.5-5-5-3-2.5-2-5 .24-5 3Z"/><path d="M12 17a5 5 0 0 0 10 0c0-2.76-2.5-5-5-3-2.5-2-5 .24-5 3Z"/><path d="M7 14c3.22-2.91 4.29-8.75 5-12 1.66 2.38 4.94 9 5 12"/><path d="M22 9c-4.29 0-7.14-2.33-10-7 5.71 0 10 4.67 10 7Z"/></g><g id="life-buoy"><circle cx="12" cy="12" r="10"/><path d="m4.93 4.93 4.24 4.24"/><path d="m14.83 9.17 4.24-4.24"/><path d="m14.83 14.83 4.24 4.24"/><path d="m9.17 14.83-4.24 4.24"/><circle cx="12" cy="12" r="4"/></g><g id="pizza"><path d="m12 14-1 1"/><path d="m13.75 18.25-1.25 1.42"/><path d="M17.775 5.654a15.68 15.68 0 0 0-12.121 12.12"/><path d="M18.8 9.3a1 1 0 0 0 2.1 7.7"/><path d="M21.964 20.732a1 1 0 0 1-1.232 1.232l-18-5a1 1 0 0 1-.695-1.232A19.68 19.68 0 0 1 15.732 2.037a1 1 0 0 1 1.232.695z"/></g><g id="zap"><path d="M15.914 4a1.5 1.5 0 00-2.474-1.561l-9 9A1.5 1.5 0 005.5 14h4.002a.5.5 0 01.471.666L8.086 20a1.5 1.5 0 002.475 1.56l9-9A1.5 1.5 0 0018.5 10h-3.997a.5.5 0 01-.472-.667z"/></g><g id="heart"><path d="M2 9.5a5.5 5.5 0 0 1 9.591-3.676.56.56 0 0 0 .818 0A5.49 5.49 0 0 1 22 9.5c0 2.29-1.5 4-3 5.5l-5.492 5.313a2 2 0 0 1-3 .019L5 15c-1.5-1.5-3-3.2-3-5.5"/></g><g id="moon"><path d="M20.985 12.486a9 9 0 1 1-9.473-9.472c.405-.022.617.46.402.803a6 6 0 0 0 8.268 8.268c.344-.215.825-.004.803.401"/></g><g id="droplet"><path d="M12 22a7 7 0 0 0 7-7c0-2-1-3.9-3-5.5s-3.5-4-4-6.5c-.5 2.5-2 4.9-4 6.5C6 11.1 5 13 5 15a7 7 0 0 0 7 7z"/></g><g id="star"><path d="M11.525 2.295a.53.53 0 0 1 .95 0l2.31 4.679a2.123 2.123 0 0 0 1.595 1.16l5.166.756a.53.53 0 0 1 .294.904l-3.736 3.638a2.123 2.123 0 0 0-.611 1.878l.882 5.14a.53.53 0 0 1-.771.56l-4.618-2.428a2.122 2.122 0 0 0-1.973 0L6.396 21.01a.53.53 0 0 1-.77-.56l.881-5.139a2.122 2.122 0 0 0-.611-1.879L2.16 9.795a.53.53 0 0 1 .294-.906l5.165-.755a2.122 2.122 0 0 0 1.597-1.16z"/></g><g id="sparkles"><path d="M11.017 2.814a1 1 0 0 1 1.966 0l1.051 5.558a2 2 0 0 0 1.594 1.594l5.558 1.051a1 1 0 0 1 0 1.966l-5.558 1.051a2 2 0 0 0-1.594 1.594l-1.051 5.558a1 1 0 0 1-1.966 0l-1.051-5.558a2 2 0 0 0-1.594-1.594l-5.558-1.051a1 1 0 0 1 0-1.966l5.558-1.051a2 2 0 0 0 1.594-1.594z"/><path d="M20 2v4"/><path d="M22 4h-4"/><circle cx="4" cy="20" r="2"/></g></defs>
<g fill="none" stroke="#000" stroke-width="1.4" stroke-linecap="round" stroke-linejoin="round"><use href="#gamepad-2" stroke-width="0.323" transform="translate(632.1 627.5) rotate(-7) scale(4.332) translate(-12 -12)"/><use href="#rocket" stroke-width="0.302" transform="translate(625.4 112.0) rotate(8) scale(4.631) translate(-12 -12)"/><use href="#drum" stroke-width="0.323" transform="translate(180.2 105.5) rotate(6) scale(4.331) translate(-12 -12)"/><use href="#ship" stroke-width="0.340" transform="translate(172.6 306.5) rotate(9) scale(4.113) translate(-12 -12)"/><use href="#tree-palm" stroke-width="0.345" transform="translate(330.5 249.3) rotate(3) scale(4.060) translate(-12 -12)"/><use href="#globe" stroke-width="0.342" transform="translate(436.2 274.6) rotate(-3) scale(4.094) translate(-12 -12)"/><use href="#solar-panel" stroke-width="0.302" transform="translate(182.0 523.9) rotate(11) scale(4.640) translate(-12 -12)"/><use href="#camera" stroke-width="0.337" transform="translate(369.7 383.8) rotate(-7) scale(4.151) translate(-12 -12)"/><use href="#gamepad-2" stroke-width="0.319" transform="translate(43.4 626.1) rotate(-6) scale(4.387) translate(-12 -12)"/><use href="#gamepad-2" stroke-width="0.319" transform="translate(743.4 626.1) rotate(-6) scale(4.387) translate(-12 -12)"/><use href="#car" stroke-width="0.363" transform="translate(322.9 -37.6) rotate(-2) scale(3.858) translate(-12 -12)"/><use href="#car" stroke-width="0.363" transform="translate(322.9 662.4) rotate(-2) scale(3.858) translate(-12 -12)"/><use href="#headphones" stroke-width="0.360" transform="translate(24.7 340.8) rotate(-5) scale(3.886) translate(-12 -12)"/><use href="#headphones" stroke-width="0.360" transform="translate(724.7 340.8) rotate(-5) scale(3.886) translate(-12 -12)"/><use href="#bike" stroke-width="0.335" transform="translate(-29.1 215.3) rotate(-0) scale(4.180) translate(-12 -12)"/><use href="#bike" stroke-width="0.335" transform="translate(670.9 215.3) rotate(-0) scale(4.180) translate(-12 -12)"/><use href="#shell" stroke-width="0.618" transform="translate(302.8 496.5) rotate(0) scale(2.265) translate(-12 -12)"/><use href="#hand-metal" stroke-width="0.651" transform="translate(270.3 331.1) rotate(2) scale(2.149) translate(-12 -12)"/><use href="#sprout" stroke-width="0.837" transform="translate(440.6 179.0) rotate(-7) scale(1.673) translate(-12 -12)"/><use href="#ice-cream-cone" stroke-width="0.565" transform="translate(51.2 448.7) rotate(-17) scale(2.479) translate(-12 -12)"/><use href="#flower" stroke-width="0.702" transform="translate(312.9 85.7) rotate(9) scale(1.994) translate(-12 -12)"/><use href="#wind" stroke-width="0.569" transform="translate(151.3 397.4) rotate(-8) scale(2.461) translate(-12 -12)"/><use href="#solar-panel" stroke-width="0.584" transform="translate(131.6 601.9) rotate(-11) scale(2.395) translate(-12 -12)"/><use href="#shell" stroke-width="0.738" transform="translate(223.6 659.8) rotate(14) scale(1.896) translate(-12 -12)"/><use href="#leaf" stroke-width="0.587" transform="translate(445.4 114.1) rotate(6) scale(2.385) translate(-12 -12)"/><use href="#tree-palm" stroke-width="0.781" transform="translate(469.2 562.9) rotate(7) scale(1.792) translate(-12 -12)"/><use href="#cloud-sun" stroke-width="0.685" transform="translate(80.9 511.0) rotate(-1) scale(2.043) translate(-12 -12)"/><use href="#feather" stroke-width="0.640" transform="translate(544.8 225.6) rotate(-2) scale(2.189) translate(-12 -12)"/><use href="#book" stroke-width="0.569" transform="translate(31.5 55.8) rotate(8) scale(2.461) translate(-12 -12)"/><use href="#car" stroke-width="0.831" transform="translate(85.6 254.0) rotate(12) scale(1.685) translate(-12 -12)"/><use href="#bike" stroke-width="0.593" transform="translate(412.0 -7.5) rotate(-1) scale(2.360) translate(-12 -12)"/><use href="#bike" stroke-width="0.593" transform="translate(412.0 692.5) rotate(-1) scale(2.360) translate(-12 -12)"/><use href="#timer" stroke-width="0.590" transform="translate(571.4 484.6) rotate(-7) scale(2.375) translate(-12 -12)"/><use href="#mountain" stroke-width="0.741" transform="translate(535.2 582.9) rotate(8) scale(1.888) translate(-12 -12)"/><use href="#trophy" stroke-width="0.703" transform="translate(360.7 581.3) rotate(-9) scale(1.991) translate(-12 -12)"/><use href="#sandwich" stroke-width="0.689" transform="translate(368.1 75.4) rotate(-10) scale(2.033) translate(-12 -12)"/><use href="#gift" stroke-width="0.576" transform="translate(496.7 153.2) rotate(6) scale(2.430) translate(-12 -12)"/><use href="#sandwich" stroke-width="0.591" transform="translate(348.0 141.7) rotate(4) scale(2.370) translate(-12 -12)"/><use href="#anchor" stroke-width="0.631" transform="translate(516.7 672.9) rotate(13) scale(2.218) translate(-12 -12)"/><use href="#lollipop" stroke-width="0.750" transform="translate(542.2 94.0) rotate(-4) scale(1.867) translate(-12 -12)"/><use href="#ship" stroke-width="0.781" transform="translate(277.0 129.7) rotate(10) scale(1.793) translate(-12 -12)"/><use href="#waves-horizontal" stroke-width="0.675" transform="translate(119.1 44.3) rotate(17) scale(2.074) translate(-12 -12)"/><use href="#face-slightly-smiling" stroke-width="0.598" transform="translate(43.6 136.0) rotate(9) scale(2.343) translate(-12 -12)"/><use href="#battery-charging" stroke-width="0.578" transform="translate(507.6 331.6) rotate(-9) scale(2.421) translate(-12 -12)"/><use href="#leaf" stroke-width="0.660" transform="translate(499.6 456.4) rotate(6) scale(2.120) translate(-12 -12)"/><use href="#sailboat" stroke-width="0.821" transform="translate(263.0 40.4) rotate(1) scale(1.706) translate(-12 -12)"/><use href="#feather" stroke-width="0.654" transform="translate(670.0 500.9) rotate(-9) scale(2.142) translate(-12 -12)"/><use href="#music" stroke-width="0.691" transform="translate(194.6 201.0) rotate(5) scale(2.026) translate(-12 -12)"/><use href="#thumbs-up" stroke-width="0.751" transform="translate(473.2 16.3) rotate(-10) scale(1.864) translate(-12 -12)"/><use href="#thumbs-up" stroke-width="0.751" transform="translate(473.2 716.3) rotate(-10) scale(1.864) translate(-12 -12)"/><use href="#cloud-sun" stroke-width="0.728" transform="translate(118.3 214.9) rotate(-3) scale(1.924) translate(-12 -12)"/><use href="#flag" stroke-width="0.715" transform="translate(421.2 463.1) rotate(7) scale(1.957) translate(-12 -12)"/><use href="#umbrella" stroke-width="0.620" transform="translate(636.3 17.5) rotate(-9) scale(2.259) translate(-12 -12)"/><use href="#umbrella" stroke-width="0.620" transform="translate(636.3 717.5) rotate(-9) scale(2.259) translate(-12 -12)"/><use href="#hand-metal" stroke-width="0.728" transform="translate(119.0 452.6) rotate(-5) scale(1.923) translate(-12 -12)"/><use href="#leaf" stroke-width="0.651" transform="translate(599.5 313.6) rotate(-1) scale(2.151) translate(-12 -12)"/><use href="#flower" stroke-width="0.639" transform="translate(464.0 625.8) rotate(-8) scale(2.191) translate(-12 -12)"/><use href="#car" stroke-width="0.616" transform="translate(396.1 521.0) rotate(7) scale(2.274) translate(-12 -12)"/><use href="#drum" stroke-width="0.669" transform="translate(603.7 397.1) rotate(-3) scale(2.094) translate(-12 -12)"/><use href="#leaf" stroke-width="0.662" transform="translate(572.8 14.8) rotate(1) scale(2.116) translate(-12 -12)"/><use href="#leaf" stroke-width="0.662" transform="translate(572.8 714.8) rotate(1) scale(2.116) translate(-12 -12)"/><use href="#glasses" stroke-width="0.630" transform="translate(468.0 398.4) rotate(-10) scale(2.222) translate(-12 -12)"/><use href="#coffee" stroke-width="0.573" transform="translate(252.3 398.1) rotate(7) scale(2.441) translate(-12 -12)"/><use href="#sun" stroke-width="0.827" transform="translate(546.6 372.9) rotate(7) scale(1.693) translate(-12 -12)"/><use href="#map-pin" stroke-width="0.571" transform="translate(-16.8 421.2) rotate(-16) scale(2.454) translate(-12 -12)"/><use href="#map-pin" stroke-width="0.571" transform="translate(683.2 421.2) rotate(-16) scale(2.454) translate(-12 -12)"/><use href="#bell" stroke-width="0.812" transform="translate(253.8 237.9) rotate(12) scale(1.724) translate(-12 -12)"/><use href="#shell" stroke-width="0.623" transform="translate(119.5 -20.5) rotate(-13) scale(2.247) translate(-12 -12)"/><use href="#shell" stroke-width="0.623" transform="translate(119.5 679.5) rotate(-13) scale(2.247) translate(-12 -12)"/><use href="#key" stroke-width="0.586" transform="translate(201.5 17.8) rotate(2) scale(2.387) translate(-12 -12)"/><use href="#key" stroke-width="0.586" transform="translate(201.5 717.8) rotate(2) scale(2.387) translate(-12 -12)"/><use href="#fish" stroke-width="0.829" transform="translate(102.6 341.2) rotate(-14) scale(1.688) translate(-12 -12)"/><use href="#waves-horizontal" stroke-width="0.716" transform="translate(254.8 587.1) rotate(12) scale(1.955) translate(-12 -12)"/><use href="#waves-horizontal" stroke-width="0.775" transform="translate(-8.7 555.1) rotate(-10) scale(1.806) translate(-12 -12)"/><use href="#waves-horizontal" stroke-width="0.775" transform="translate(691.3 555.1) rotate(-10) scale(1.806) translate(-12 -12)"/><use href="#plug-zap" stroke-width="0.591" transform="translate(506.3 517.2) rotate(-1) scale(2.368) translate(-12 -12)"/><use href="#headphones" stroke-width="0.827" transform="translate(407.4 627.4) rotate(-8) scale(1.692) translate(-12 -12)"/><use href="#thumbs-up" stroke-width="0.744" transform="translate(54.1 202.3) rotate(-2) scale(1.883) translate(-12 -12)"/><use href="#glasses" stroke-width="0.787" transform="translate(37.0 265.6) rotate(-15) scale(1.778) translate(-12 -12)"/><use href="#sailboat" stroke-width="0.780" transform="translate(174.5 642.9) rotate(-16) scale(1.795) translate(-12 -12)"/><use href="#volleyball" stroke-width="0.776" transform="translate(483.9 70.8) rotate(17) scale(1.804) translate(-12 -12)"/><use href="#cherry" stroke-width="0.645" transform="translate(266.7 186.2) rotate(-0) scale(2.172) translate(-12 -12)"/><use href="#coffee" stroke-width="0.730" transform="translate(26.7 518.3) rotate(7) scale(1.919) translate(-12 -12)"/><use href="#solar-panel" stroke-width="0.636" transform="translate(612.2 543.8) rotate(6) scale(2.202) translate(-12 -12)"/><use href="#shell" stroke-width="0.766" transform="translate(549.7 280.7) rotate(16) scale(1.828) translate(-12 -12)"/><use href="#waves-horizontal" stroke-width="0.813" transform="translate(416.4 580.4) rotate(-8) scale(1.722) translate(-12 -12)"/><use href="#gamepad-2" stroke-width="0.785" transform="translate(91.7 102.6) rotate(15) scale(1.784) translate(-12 -12)"/><use href="#book" stroke-width="0.710" transform="translate(309.9 436.4) rotate(-6) scale(1.973) translate(-12 -12)"/><use href="#thumbs-up" stroke-width="0.812" transform="translate(386.6 191.2) rotate(13) scale(1.725) translate(-12 -12)"/><use href="#glasses" stroke-width="0.633" transform="translate(630.4 457.0) rotate(-17) scale(2.213) translate(-12 -12)"/><use href="#headphones" stroke-width="0.798" transform="translate(65.3 7.2) rotate(-4) scale(1.754) translate(-12 -12)"/><use href="#headphones" stroke-width="0.798" transform="translate(65.3 707.2) rotate(-4) scale(1.754) translate(-12 -12)"/><use href="#waves-horizontal" stroke-width="0.781" transform="translate(256.0 457.3) rotate(16) scale(1.794) translate(-12 -12)"/><use href="#tree-palm" stroke-width="0.660" transform="translate(201.1 437.6) rotate(-1) scale(2.120) translate(-12 -12)"/><use href="#battery-charging" stroke-width="0.791" transform="translate(653.4 303.4) rotate(6) scale(1.769) translate(-12 -12)"/><use href="#glasses" stroke-width="0.786" transform="translate(308.4 557.6) rotate(-6) scale(1.781) translate(-12 -12)"/><use href="#life-buoy" stroke-width="0.768" transform="translate(-9.5 -7.8) rotate(1) scale(1.824) translate(-12 -12)"/><use href="#life-buoy" stroke-width="0.768" transform="translate(-9.5 692.2) rotate(1) scale(1.824) translate(-12 -12)"/><use href="#life-buoy" stroke-width="0.768" transform="translate(690.5 -7.8) rotate(1) scale(1.824) translate(-12 -12)"/><use href="#life-buoy" stroke-width="0.768" transform="translate(690.5 692.2) rotate(1) scale(1.824) translate(-12 -12)"/><use href="#anchor" stroke-width="0.746" transform="translate(426.8 57.1) rotate(8) scale(1.876) translate(-12 -12)"/><use href="#camera" stroke-width="0.831" transform="translate(491.1 217.7) rotate(8) scale(1.685) translate(-12 -12)"/><use href="#pizza" stroke-width="0.792" transform="translate(599.7 257.7) rotate(-7) scale(1.769) translate(-12 -12)"/><use href="#plug-zap" stroke-width="0.784" transform="translate(108.1 162.8) rotate(2) scale(1.785) translate(-12 -12)"/><use href="#face-slightly-smiling" stroke-width="0.815" transform="translate(640.1 353.2) rotate(10) scale(1.717) translate(-12 -12)"/><use href="#umbrella" stroke-width="0.669" transform="translate(363.1 465.0) rotate(-16) scale(2.093) translate(-12 -12)"/><use href="#zap" stroke-width="1.393" transform="translate(551.2 418.7) rotate(-3) scale(1.005) translate(-12 -12)"/><use href="#heart" stroke-width="1.675" transform="translate(450.3 498.4) rotate(-3) scale(0.836) translate(-12 -12)"/><use href="#heart" stroke-width="1.671" transform="translate(567.9 556.5) rotate(-3) scale(0.838) translate(-12 -12)"/><use href="#moon" stroke-width="1.572" transform="translate(524.7 49.2) rotate(4) scale(0.891) translate(-12 -12)"/><use href="#music" stroke-width="1.451" transform="translate(101.0 552.8) rotate(-15) scale(0.965) translate(-12 -12)"/><use href="#droplet" stroke-width="1.313" transform="translate(257.7 90.6) rotate(-15) scale(1.067) translate(-12 -12)"/><use href="#star" stroke-width="1.532" transform="translate(340.2 529.6) rotate(3) scale(0.914) translate(-12 -12)"/><use href="#moon" stroke-width="1.453" transform="translate(550.1 176.3) rotate(5) scale(0.963) translate(-12 -12)"/><use href="#leaf" stroke-width="1.564" transform="translate(442.2 357.9) rotate(4) scale(0.895) translate(-12 -12)"/><use href="#zap" stroke-width="1.420" transform="translate(257.6 -2.6) rotate(-16) scale(0.986) translate(-12 -12)"/><use href="#zap" stroke-width="1.420" transform="translate(257.6 697.4) rotate(-16) scale(0.986) translate(-12 -12)"/><use href="#star" stroke-width="1.528" transform="translate(162.1 234.2) rotate(13) scale(0.916) translate(-12 -12)"/><use href="#music" stroke-width="1.335" transform="translate(330.8 33.9) rotate(3) scale(1.049) translate(-12 -12)"/><use href="#moon" stroke-width="1.480" transform="translate(88.2 409.6) rotate(-13) scale(0.946) translate(-12 -12)"/><use href="#music" stroke-width="1.655" transform="translate(560.5 652.9) rotate(4) scale(0.846) translate(-12 -12)"/><use href="#moon" stroke-width="1.396" transform="translate(212.7 245.6) rotate(11) scale(1.003) translate(-12 -12)"/><use href="#leaf" stroke-width="1.495" transform="translate(600.6 192.3) rotate(-7) scale(0.936) translate(-12 -12)"/><use href="#leaf" stroke-width="1.411" transform="translate(209.5 617.9) rotate(-19) scale(0.992) translate(-12 -12)"/><use href="#music" stroke-width="1.537" transform="translate(80.9 299.7) rotate(12) scale(0.911) translate(-12 -12)"/><use href="#sparkles" stroke-width="1.477" transform="translate(510.7 262.4) rotate(-11) scale(0.948) translate(-12 -12)"/><use href="#face-slightly-smiling" stroke-width="1.422" transform="translate(251.9 286.3) rotate(-9) scale(0.984) translate(-12 -12)"/><use href="#leaf" stroke-width="1.306" transform="translate(408.2 150.9) rotate(-8) scale(1.072) translate(-12 -12)"/><use href="#star" stroke-width="1.563" transform="translate(324.9 319.8) rotate(4) scale(0.896) translate(-12 -12)"/><path d="M0 -5.8782431106083095Q0 0 5.8782431106083095 0Q0 0 0 5.8782431106083095Q0 0 -5.8782431106083095 0Q0 0 0 -5.8782431106083095z" transform="translate(260.0 545.7)"/><circle cx="690.6" cy="78.9" r="4.5"/><circle cx="4.3" cy="103.7" r="5.1"/><circle cx="704.3" cy="103.7" r="5.1"/><circle cx="581.8" cy="353.7" r="5.5"/><rect x="-7" y="-2.5" width="14" height="5" rx="2.5" transform="translate(542.8 624.4) rotate(-27)"/><rect x="-7" y="-2.5" width="14" height="5" rx="2.5" transform="translate(378.1 32.1) rotate(-10)"/><circle cx="297.0" cy="395.3" r="3.2"/><circle cx="376.5" cy="307.6" r="5.3"/><rect x="-7" y="-2.5" width="14" height="5" rx="2.5" transform="translate(674.0 49.5) rotate(-18)"/><circle cx="691.8" cy="282.6" r="5.0"/><circle cx="428.2" cy="423.0" r="3.4"/><circle cx="151.5" cy="17.1" r="5.2"/><circle cx="257.8" cy="640.7" r="3.5"/><circle cx="386.6" cy="114.2" r="3.8"/><circle cx="149.9" cy="172.3" r="4.2"/><circle cx="295.5" cy="602.5" r="3.4"/><circle cx="551.2" cy="532.0" r="4.7"/><circle cx="299.7" cy="28.3" r="3.7"/><circle cx="208.2" cy="364.0" r="4.2"/><circle cx="626.5" cy="501.7" r="5.3"/><circle cx="546.3" cy="143.5" r="5.1"/><rect x="-7" y="-2.5" width="14" height="5" rx="2.5" transform="translate(58.2 551.2) rotate(22)"/><circle cx="458.1" cy="439.8" r="3.5"/><circle cx="311.4" cy="181.8" r="3.6"/><circle cx="506.8" cy="624.6" r="3.7"/><rect x="-7" y="-2.5" width="14" height="5" rx="2.5" transform="translate(519.5 416.1) rotate(-9)"/><circle cx="692.7" cy="137.8" r="3.4"/><circle cx="575.7" cy="438.5" r="4.2"/><circle cx="83.5" cy="380.0" r="5.4"/><circle cx="257.6" cy="519.2" r="5.4"/><circle cx="129.3" cy="254.9" r="4.8"/><circle cx="562.4" cy="334.9" r="4.7"/><circle cx="496.4" cy="589.5" r="4.0"/><circle cx="456.9" cy="669.5" r="4.8"/><circle cx="105.9" cy="285.7" r="5.2"/><circle cx="519.5" cy="19.3" r="3.6"/><circle cx="309.7" cy="352.1" r="4.4"/><circle cx="227.4" cy="168.1" r="4.9"/><circle cx="163.2" cy="681.6" r="3.9"/><circle cx="7.2" cy="478.2" r="4.5"/><circle cx="564.8" cy="61.8" r="3.9"/><circle cx="461.3" cy="523.4" r="3.9"/><circle cx="315.6" cy="597.0" r="3.8"/><circle cx="304.4" cy="157.8" r="3.9"/><circle cx="300.9" cy="374.4" r="5.1"/><circle cx="201.9" cy="386.0" r="4.3"/><circle cx="441.1" cy="534.3" r="3.4"/><circle cx="187.6" cy="597.1" r="5.0"/><circle cx="239.3" cy="141.7" r="4.3"/><circle cx="508.7" cy="376.8" r="4.0"/><circle cx="568.1" cy="605.4" r="3.0"/><circle cx="588.7" cy="218.2" r="3.5"/><circle cx="544.6" cy="448.2" r="4.3"/><circle cx="61.5" cy="396.3" r="4.9"/><circle cx="77.5" cy="42.9" r="3.4"/><circle cx="584.7" cy="576.1" r="3.7"/><circle cx="228.0" cy="348.9" r="3.5"/><circle cx="500.6" cy="105.6" r="4.8"/><circle cx="108.0" cy="380.2" r="4.4"/><circle cx="351.5" cy="321.4" r="3.0"/><circle cx="38.7" cy="402.6" r="4.3"/><circle cx="158.9" cy="444.8" r="4.4"/><circle cx="458.4" cy="335.9" r="3.1"/><circle cx="419.5" cy="207.7" r="3.3"/><circle cx="668.4" cy="377.9" r="3.4"/><circle cx="249.9" cy="495.9" r="4.3"/><circle cx="298.2" cy="49.0" r="3.1"/><circle cx="650.5" cy="389.4" r="4.1"/><circle cx="235.0" cy="62.2" r="3.0"/><circle cx="27.9" cy="5.0" r="4.3"/><circle cx="27.9" cy="705.0" r="4.3"/><circle cx="78.6" cy="63.9" r="3.6"/><circle cx="418.3" cy="337.2" r="3.8"/><circle cx="155.0" cy="197.8" r="3.4"/><circle cx="349.8" cy="504.5" r="3.3"/><circle cx="578.0" cy="173.6" r="4.4"/><circle cx="567.0" cy="153.6" r="3.9"/><circle cx="650.7" cy="559.8" r="3.0"/><circle cx="361.2" cy="13.6" r="3.2"/><circle cx="385.6" cy="656.0" r="3.6"/><circle cx="31.0" cy="557.7" r="3.9"/><circle cx="229.6" cy="268.3" r="3.5"/><circle cx="461.6" cy="472.5" r="3.7"/><circle cx="214.1" cy="589.1" r="4.5"/><circle cx="518.0" cy="192.3" r="3.0"/><circle cx="118.0" cy="492.5" r="3.5"/><circle cx="371.0" cy="622.5" r="4.2"/><circle cx="693.4" cy="31.1" r="3.7"/><circle cx="282.8" cy="9.9" r="3.2"/><circle cx="159.8" cy="40.0" r="3.1"/></g>
</svg>
